<?xml version="1.0" ?><svg height="48px" version="1.1" viewBox="0 0 48 48" width="48px" xmlns="http://www.w3.org/2000/svg" xmlns:sketch="http://www.bohemiancoding.com/sketch/ns" xmlns:xlink="http://www.w3.org/1999/xlink"><title/><defs/><g fill="none" fill-rule="evenodd" id="shadow" stroke="none" stroke-width="1"><g id="readability"><path d="M24,48 C37.2548347,48 48,37.2548347 48,24 C48,10.7451653 37.2548347,0 24,0 C10.7451653,0 0,10.7451653 0,24 C0,37.2548347 10.7451653,48 24,48 Z" fill="#CA4638" id="Readability"/><path d="M0.946952503,30.6974597 C3.5752776,39.759986 11.402654,46.6123454 20.9872719,47.8127281 L33.0737463,35.7262537 L31.5253906,33.909571 L33.0737457,31.644413 L37.8914063,26.4880859 L32.7121094,21.6296875 L29.9357422,24.7052734 L18.6654915,14.0169182 L12.5381798,20.1442299 L10.3162553,21.3281569 L0.946952503,30.6974597 Z" fill="#000000" fill-opacity="0.400000006"/><path d="M16.3449672,23.671396 C16.1542282,21.7805373 14.6393204,20.3076923 12.7984139,20.3076923 C10.8282084,20.3076923 9.23076923,21.9942095 9.23076923,24.0749472 C9.23076923,26.1202283 10.7750215,27.7838854 12.6989178,27.8394028 C13.0836054,28.9852082 14.9974145,32.9652021 14.9974145,33.2091989 L14.9974145,35.4840144 C14.9974145,35.7690661 15.2161225,36 15.4857247,36 L17.0496928,36 C17.3197536,36 17.5384615,35.7690661 17.5384615,35.4840144 L16.3656001,23.7138505 C16.3656001,23.6933231 16.3573469,23.6807267 16.3449672,23.671396 L16.3449672,23.671396 Z M17.5384615,27.8786864 L18.1718592,32.3076923 L29.8541997,32.30725 L30.4615385,27.933087 C26.6367751,25.1776739 21.3380067,25.1418491 17.5384615,27.8786864 L17.5384615,27.8786864 Z M35.2020446,20.3076923 C33.3606796,20.3076923 31.8457718,21.7807849 31.6550328,23.671829 C31.6426531,23.6806918 31.6343999,23.6932864 31.6343999,23.7138108 L30.4615385,35.4840911 C30.4615385,35.7691004 30.6807049,36 30.9503072,36 L32.5142753,36 C32.784336,36 33.003044,35.7691004 33.003044,35.4840911 L33.003044,33.2096137 C33.003044,32.9656532 34.9163946,28.9853178 35.3010822,27.8396828 C37.225437,27.7841736 38.7692308,26.1202973 38.7692308,24.0748537 C38.7692308,21.9948918 37.1722501,20.3076923 35.2020446,20.3076923 L35.2020446,20.3076923 Z M32.3076923,20.7371592 C32.3076923,20.7371592 31.9925343,12.1326342 23.9947121,12 L23.9947121,12.0064926 C16.0827652,12.2049801 15.6923077,20.7102613 15.6923077,20.7102613 C16.7926111,21.2644495 17.0341617,23.3174964 17.0341617,23.3174964 L17.3302833,26.7692308 C17.9081435,26.2827509 20.1146727,24.5891148 24.0332079,24.4982186 C27.9284764,24.6011724 30.0939716,26.2544618 30.6697167,26.7390866 L30.9658383,23.3740746 C30.9658383,23.3736108 31.2073889,21.2913473 32.3076923,20.7371592 L32.3076923,20.7371592 Z" fill="#FFFFFF" id="Readability"/></g></g></svg>