<?xml version="1.0" ?><svg height="48px" version="1.1" viewBox="0 0 48 48" width="48px" xmlns="http://www.w3.org/2000/svg" xmlns:sketch="http://www.bohemiancoding.com/sketch/ns" xmlns:xlink="http://www.w3.org/1999/xlink"><title/><defs/><g fill="none" fill-rule="evenodd" id="shadow" stroke="none" stroke-width="1"><g id="yahoo_messenger"><path d="M24,48 C37.2548347,48 48,37.2548347 48,24 C48,10.7451653 37.2548347,0 24,0 C10.7451653,0 0,10.7451653 0,24 C0,37.2548347 10.7451653,48 24,48 Z" fill="#7E4EA3" id="yahoo"/><path d="M0.187271865,27.0127281 C1.5456191,37.858635 10.141365,46.4543809 20.9872719,47.8127281 L34.7479241,34.0520759 L36.9192505,19.8456474 L30.5347992,13.100592 L12.9136635,14.2863365 L0.187271865,27.0127281 Z" fill="#000000" fill-opacity="0.400000006" id="yahoo"/><path d="M38.7692308,24 C38.7692308,15.8427897 32.157465,9.23076923 24.0001641,9.23076923 C15.8428632,9.23076923 9.23076923,15.8427897 9.23076923,24 C9.23044102,32.1565538 15.842535,38.7692308 24.0001641,38.7692308 C32.157465,38.7692308 38.7692308,32.1565538 38.7692308,24 Z M20.3073773,15.6923077 C21.3265424,15.6923077 22.1538462,16.5183181 22.1538462,17.5387767 C22.1538462,18.5579746 21.3268575,19.3846154 20.3073773,19.3846154 C19.2875821,19.3846154 18.4615386,18.5579746 18.4615386,17.5387767 C18.4612235,16.5183181 19.2875821,15.6923077 20.3073773,15.6923077 L20.3073773,15.6923077 Z M27.6919927,15.6923077 C28.7111578,15.6923077 29.5384615,16.5183181 29.5384615,17.5387767 C29.5384615,18.5579746 28.7114728,19.3846154 27.6919927,19.3846154 C26.6721975,19.3846154 25.8461539,18.5579746 25.8461539,17.5387767 C25.8458389,16.5183181 26.6721975,15.6923077 27.6919927,15.6923077 L27.6919927,15.6923077 Z M13.8461538,22.1538462 L34.1538462,22.1538462 L34.1538462,25.8689693 L34.1121268,25.8689693 C33.6904405,31.0230532 29.3288437,35.0769231 23.9990372,35.0769231 C18.6705144,35.0769231 14.3095595,31.0230532 13.8888359,25.8689693 L13.8461538,25.8689693 L13.8461538,22.1538462 L13.8461538,22.1538462 Z M32.3076923,25.8461538 L15.6923077,25.8461538 L15.6923077,24 L32.3076923,24 L32.3076923,25.8461538 L32.3076923,25.8461538 Z" fill="#FFFFFF" id="yahoo"/></g></g></svg>